<?xml version="1.0" encoding="UTF-8" standalone="no"?><!DOCTYPE svg PUBLIC "-//W3C//DTD SVG 1.1//EN" "http://www.w3.org/Graphics/SVG/1.1/DTD/svg11.dtd"><svg width="100%" height="100%" viewBox="0 0 842 4593" version="1.1" xmlns="http://www.w3.org/2000/svg" xmlns:xlink="http://www.w3.org/1999/xlink" xml:space="preserve" xmlns:serif="http://www.serif.com/" style="fill-rule:evenodd;clip-rule:evenodd;stroke-linecap:round;stroke-linejoin:round;stroke-miterlimit:1.5;"><rect x="-1592.14" y="-781.307" width="3270.96" height="6299.11" style="fill:#ced0e2;"/><path d="M135.434,722.079c219.295,-178.91 547.602,-33.23 461.217,211.5c-86.385,244.73 -211.838,235.202 -327.597,318.497c-227.672,163.821 -514.278,262.743 -483.984,-14.239c30.294,-276.981 131.069,-336.847 350.364,-515.758Z" style="fill:#e6e6e6;"/><path d="M432.311,2762.67c180.262,218.185 36.614,547.387 -208.645,462.516c-245.26,-84.871 -236.507,-210.38 -320.515,-325.622c-165.226,-226.656 -265.917,-512.645 11.247,-484.063c277.164,28.582 337.651,128.985 517.913,347.169Z" style="fill:#e6e6e6;"/><path d="M824.225,4031.25c263.834,362.125 54.2,907.999 -304.507,766.925c-358.706,-141.074 -346.061,-349.247 -469.033,-540.502c-241.858,-376.156 -389.43,-850.651 15.857,-802.906c405.287,47.746 493.85,214.359 757.683,576.483Z" style="fill:#e6e6e6;"/><path d="M501.388,360.731c194.158,205.917 72.366,543.815 -177.922,475.181c-250.289,-68.635 -249.771,-194.448 -341.143,-303.943c-179.707,-215.355 -298.903,-494.139 -20.463,-483.761c278.441,10.377 345.371,106.606 539.528,312.523Z" style="fill:#e6e6e6;"/><path d="M1554.87,1112.89c-203.034,266.857 -584.525,318.673 -851.382,115.64c-266.857,-203.034 -318.673,-584.525 -115.639,-851.382c203.033,-266.856 584.524,-318.673 851.381,-115.639c266.857,203.033 318.673,584.524 115.64,851.381Z" style="fill:none;stroke:#fefbda;stroke-width:34px;"/><path d="M166.209,1486.39c338.072,-214.646 1041.3,-152.749 631.398,400.186c-409.897,552.936 -285.017,849.615 -456.806,882.684c-490.06,94.334 -512.664,-1068.22 -174.592,-1282.87Z" style="fill:#e5f4fd;"/><path d="M772.422,5120.61c-370.552,-151.845 -726.452,-761.507 -38.318,-746.555c688.135,14.953 858.078,-258.42 984.348,-137.337c360.205,345.412 -575.479,1035.74 -946.03,883.892Z" style="fill:#e5f4fd;"/><path d="M443.135,3667.86c-374.503,-141.821 -746.679,-741.686 -58.391,-745.254c688.288,-3.567 850.815,-281.414 980.296,-163.772c369.369,335.596 -547.402,1050.85 -921.905,909.026Z" style="fill:#e5f4fd;"/><path d="M904.456,2839.43c-203.034,266.857 -584.525,318.674 -851.382,115.64c-266.857,-203.033 -318.673,-584.525 -115.64,-851.381c203.034,-266.857 584.525,-318.674 851.382,-115.64c266.857,203.033 318.673,584.525 115.64,851.381Z" style="fill:none;stroke:#fefbda;stroke-width:34px;"/><path d="M1272.57,5433.38c-284.988,374.575 -820.47,447.307 -1195.04,162.318c-374.574,-284.988 -447.306,-820.469 -162.318,-1195.04c284.989,-374.574 820.47,-447.307 1195.04,-162.318c374.574,284.988 447.306,820.469 162.318,1195.04Z" style="fill:none;stroke:#fefbda;stroke-width:34px;"/><g><path d="M85.957,3301.68c71.253,-70.679 255.473,-140.459 123.243,-10.695c-132.23,129.765 -194.495,81.375 -123.243,10.695Z" style="fill:#fdb3b3;"/><path d="M85.957,3402.61c71.253,-70.679 255.473,-140.46 123.243,-10.695c-132.23,129.764 -194.495,81.374 -123.243,10.695Z" style="fill:#fdb3b3;"/><path d="M85.957,3509.71c71.253,-70.679 255.473,-140.46 123.243,-10.695c-132.23,129.764 -194.495,81.374 -123.243,10.695Z" style="fill:#fdb3b3;"/></g><g><path d="M713.751,2211.36c100.361,-0.294 280.526,79.373 95.26,78.921c-185.266,-0.452 -195.622,-78.628 -95.26,-78.921Z" style="fill:#fdb3b3;"/><path d="M642.882,2283.23c100.362,-0.293 280.527,79.374 95.261,78.922c-185.266,-0.453 -195.622,-78.628 -95.261,-78.922Z" style="fill:#fdb3b3;"/><path d="M567.686,2359.48c100.361,-0.294 280.526,79.374 95.26,78.922c-185.266,-0.453 -195.622,-78.628 -95.26,-78.922Z" style="fill:#fdb3b3;"/></g><g><path d="M378.554,1113.37c26.089,96.912 -4.577,291.504 -51.775,112.35c-47.197,-179.153 25.687,-209.261 51.775,-112.35Z" style="fill:#fdb3b3;"/><path d="M290.886,1063.36c26.089,96.911 -4.577,291.503 -51.775,112.35c-47.198,-179.154 25.687,-209.262 51.775,-112.35Z" style="fill:#fdb3b3;"/><path d="M197.863,1010.29c26.089,96.911 -4.577,291.503 -51.774,112.35c-47.198,-179.154 25.686,-209.262 51.774,-112.35Z" style="fill:#fdb3b3;"/></g></svg>