<?xml version="1.0" encoding="utf-8"?>
<!-- Generator: Adobe Illustrator 25.1.0, SVG Export Plug-In . SVG Version: 6.00 Build 0)  -->
<svg version="1.1" id="Layer_1" xmlns="http://www.w3.org/2000/svg" xmlns:xlink="http://www.w3.org/1999/xlink" x="0px" y="0px"
	 viewBox="0 0 200 100" style="enable-background:new 0 0 200 100;" xml:space="preserve">
<style type="text/css">
	.st0{fill:#738ADB;}
</style>
<path class="st0" d="M42.6,22.7H5.7c-3.1,0-5.7,2.5-5.7,5.7v36.9c0,3.1,2.5,5.7,5.7,5.7h31.3l-1.5-5l3.5,3.3l3.3,3.1l6,5.2v-49
	C48.2,25.2,45.7,22.7,42.6,22.7z M31.9,58.4c0,0-1-1.2-1.8-2.2c3.6-1,5-3.3,5-3.3c-1.1,0.7-2.2,1.3-3.2,1.6c-1.4,0.6-2.7,0.9-4,1.2
	c-2.6,0.5-5.1,0.4-7.1,0c-1.6-0.3-2.9-0.7-4.1-1.2c-0.6-0.2-1.3-0.6-2-0.9c-0.1-0.1-0.2-0.1-0.2-0.1c-0.1,0-0.1-0.1-0.1-0.1
	c-0.5-0.3-0.8-0.5-0.8-0.5s1.3,2.2,4.8,3.2c-0.8,1-1.8,2.3-1.8,2.3c-6.1-0.2-8.4-4.2-8.4-4.2c0-8.8,4-15.9,4-15.9
	c4-2.9,7.7-2.9,7.7-2.9l0.3,0.3c-5,1.4-7.2,3.6-7.2,3.6s0.6-0.3,1.6-0.8c2.9-1.3,5.3-1.6,6.3-1.7c0.2,0,0.3-0.1,0.5-0.1
	c1.7-0.2,3.6-0.3,5.6-0.1c2.6,0.3,5.4,1.1,8.3,2.6c0,0-2.2-2.1-6.9-3.5l0.4-0.4c0,0,3.8-0.1,7.7,2.9c0,0,4,7.1,4,15.9
	C40.4,54.2,38,58.2,31.9,58.4z M73.6,34.5h-9.2v10.3l6.1,5.5v-10h3.3c2.1,0,3.1,1,3.1,2.6v7.6c0,1.6-1,2.7-3.1,2.7h-9.4V59h9.2
	c4.9,0,9.5-2.4,9.5-8v-8.2C83.1,37,78.5,34.5,73.6,34.5z M121.5,50.9v-8.4c0-3,5.5-3.7,7.1-0.7l5-2c-2-4.4-5.6-5.6-8.6-5.6
	c-4.9,0-9.8,2.8-9.8,8.4v8.4c0,5.6,4.9,8.4,9.6,8.4c3.1,0,6.8-1.5,8.8-5.5l-5.4-2.5C127.1,54.7,121.5,53.9,121.5,50.9z M104.9,43.6
	c-1.9-0.4-3.2-1.1-3.3-2.3c0.1-2.8,4.5-2.9,7.1-0.2l4.1-3.1c-2.5-3.1-5.4-3.9-8.4-3.9c-4.5,0-8.8,2.5-8.8,7.3c0,4.7,3.6,7.2,7.5,7.8
	c2,0.3,4.2,1.1,4.2,2.5c-0.2,2.6-5.6,2.5-8-0.5l-3.9,3.7c2.3,2.9,5.4,4.4,8.3,4.4c4.5,0,9.5-2.6,9.7-7.3
	C113.6,46,109.2,44.4,104.9,43.6z M86.4,58.9h6.2V34.5h-6.2V58.9z M190.5,34.5h-9.2v10.3l6.1,5.5v-10h3.3c2.1,0,3.1,1,3.1,2.6v7.6
	c0,1.6-1,2.7-3.1,2.7h-9.4V59h9.2c4.9,0,9.5-2.4,9.5-8v-8.2C200,37,195.4,34.5,190.5,34.5z M145.6,34.1c-5.1,0-10.1,2.8-10.1,8.4
	v8.4c0,5.6,5.1,8.4,10.2,8.4c5.1,0,10.1-2.8,10.1-8.4v-8.4C155.8,36.9,150.7,34.1,145.6,34.1z M149.6,50.9c0,1.8-2,2.7-3.9,2.7
	c-2,0-4-0.9-4-2.7v-8.4c0-1.8,1.9-2.8,3.9-2.8c2,0,4.1,0.9,4.1,2.8V50.9z M177.9,42.5c-0.1-5.7-4.1-8-9.1-8H159V59h6.3v-7.8h1.1
	l5.7,7.8h7.7l-6.7-8.4C176.1,49.6,177.9,47.1,177.9,42.5z M168.9,45.9h-3.6v-5.6h3.6C172.8,40.3,172.8,45.9,168.9,45.9z"/>
</svg>
