<?xml version="1.0" encoding="utf-8"?>
<!-- Generator: Adobe Illustrator 25.1.0, SVG Export Plug-In . SVG Version: 6.00 Build 0)  -->
<svg version="1.1" id="svg" xmlns="http://www.w3.org/2000/svg" xmlns:xlink="http://www.w3.org/1999/xlink" x="0px" y="0px"
	 viewBox="0 0 80 100" style="enable-background:new 0 0 80 100;" xml:space="preserve">
<style type="text/css">
	.st0{fill-rule:evenodd;clip-rule:evenodd;fill:#E43C2C;}
	.st1{fill-rule:evenodd;clip-rule:evenodd;fill:#ECEDEC;}
</style>
<g id="svgg">
	<path id="path0" class="st0" d="M5.5,86.3c-3.7,0.4-5.8,4-5,8.6c0.7,3.9,3.9,6,7.7,4.9c0.8-0.2,2.4-1.3,2.6-1.6
		c0,0-0.4-0.4-0.9-0.9l-0.9-0.9l-0.3,0.3c-1.8,1.7-4.5,1.1-5.2-1.2c-0.3-0.9-0.4-3.1-0.1-4.3c0.6-2.5,3.5-3.3,5.4-1.5L8.9,90
		l0.7-0.7c0.4-0.4,0.8-0.8,0.9-0.9l0.2-0.2l-0.4-0.3C9.1,86.6,7.4,86.1,5.5,86.3 M17.1,86.3c-1.5,0.2-2.8,0.8-3.5,1.7l-0.2,0.2
		l0.7,0.7c0.4,0.4,0.8,0.7,0.9,0.8l0.2,0.2l0.4-0.4c0.7-0.7,1.2-0.9,2.5-0.9c2.2,0,2.9,0.6,2.9,2.7l0,0.8l-2.3,0
		c-3.1,0-3.8,0.2-4.8,1.1c-1.6,1.4-1.4,4.7,0.4,6c1.6,1.2,4.7,1.2,6.3-0.1c0.2-0.2,0.4-0.3,0.4-0.3c0,0,0,0.3,0,0.6v0.6h1.3h1.3
		v-4.8c0-5.6,0-5.6-0.6-6.6C22.3,86.9,19.9,86,17.1,86.3 M33.7,86.3c-1,0.1-2.2,0.7-2.7,1.3c-0.1,0.2-0.2,0.1-0.1-0.5l0-0.6h-1.3
		h-1.3v6.7v6.7l1.3,0l1.3,0l0-4.5c0-5,0-4.6,0.3-5.3c0.8-1.6,3.4-1.9,4.5-0.4c0.6,0.8,0.6,0.8,0.6,6l0,4.3h1.4h1.4l0-4.8
		c0-5.5,0-5.5-0.6-6.5C37.7,87,35.7,86.1,33.7,86.3 M59.3,86.3c-1.5,0.2-2.5,0.6-3.4,1.6l-0.3,0.3l0.4,0.4c0.9,0.8,1.3,1.3,1.4,1.3
		c0,0,0.2-0.2,0.4-0.4c0.7-0.7,1.4-0.9,2.7-0.9c2,0.1,2.7,0.8,2.7,2.7v0.7l-2.2,0c-2.6,0-3.1,0.1-3.9,0.5c-2.8,1.4-2.6,5.9,0.4,7
		c0.8,0.3,1.2,0.4,2.3,0.4c1.5,0,2.2-0.2,3.1-0.9l0.4-0.3l0,0.6l0,0.6h1.3h1.3l0-4.6c0-5.3,0-5.5-0.4-6.4C64.8,87,62.3,86,59.3,86.3
		 M73.5,86.3c-2.6,0.3-4.2,1.9-4.2,4.1c0,2.4,1.2,3.4,4.5,3.7c2.2,0.2,2.5,0.3,2.9,0.7c0.4,0.4,0.5,1.1,0.3,1.6
		c-0.6,1.7-4.7,1.7-6.5,0l-0.2-0.1l-0.9,0.9l-0.9,0.9l0.3,0.3c2.6,2.2,7.8,2.2,9.8,0.1c1.6-1.7,1.4-4.5-0.4-5.7
		c-0.7-0.5-1.5-0.7-3.5-0.9c-2.5-0.2-3-0.5-3-1.6c0-1.9,3.3-2.4,5.6-0.8c0.1,0.1,0.2,0,0.9-0.8l0.8-0.9L79,87.6
		C77.7,86.6,75.4,86.1,73.5,86.3 M41.5,86.5c0,0,0.3,0.9,0.7,2c0.4,1.1,1.5,4.1,2.4,6.6l1.7,4.7h1.1h1.1l0.3-0.8
		c0.2-0.5,1.3-3.4,2.4-6.6c1.2-3.2,2.1-5.8,2.2-5.9c0,0-0.3-0.1-1.4-0.1h-1.4l-1.6,4.7l-1.6,4.7l-0.9-2.8c-0.5-1.5-1.2-3.6-1.6-4.7
		l-0.6-1.9h-1.4C41.8,86.5,41.5,86.5,41.5,86.5 M21,94.9c0,1.3-0.2,1.7-0.6,2.2c-0.9,0.9-3.4,1-4.4,0.2c-0.7-0.6-0.7-2,0-2.7
		c0.6-0.5,0.9-0.6,3.2-0.6l1.9,0L21,94.9 M63.2,94.8c0,1.5-0.3,2.2-1.2,2.6c-0.9,0.5-2.7,0.5-3.5,0c-1.2-0.7-1.1-2.6,0.2-3.2
		c0.5-0.2,0.7-0.3,2.7-0.3l1.8,0L63.2,94.8"/>
	<path id="path1" class="st0" d="M38.1,0.1c-2.6,0.1-5.7,0.5-8.4,1.1c-0.8,0.2-1.4,0.3-1.4,0.3c0,0,0.2,1.1,0.3,1.6
		c1.1,4,4.4,7.3,8.4,8.2c6.5,1.5,12.9-2.6,14.1-9.2c0.1-0.3,0.1-0.6,0.1-0.6c-0.1-0.1-3.1-0.7-4.2-0.9C45,0.3,41,0,39.5,0.1
		C39.4,0.1,38.8,0.1,38.1,0.1 M19.5,5.4C13.8,9.1,9,13.9,5.4,19.6c-0.4,0.7-0.8,1.2-0.8,1.3c0,0,0.2,0.2,0.4,0.3
		c5.8,4.1,13.9,2,17-4.3c1.7-3.4,1.5-7.7-0.3-10.9c-0.3-0.4-0.8-1.3-0.9-1.3C20.8,4.7,20.2,5,19.5,5.4 M58.6,5.1
		c-6.1,8.9,2,20.5,12.3,17.8c1.4-0.4,3.9-1.6,4.2-2.1c0,0-0.3-0.6-0.8-1.3C70.7,13.9,65.8,9,60.2,5.4C58.7,4.5,58.9,4.6,58.6,5.1
		 M39.2,14.8c-2.9,0.5-4,4.1-1.9,6.1c2.3,2.3,6.1,0.7,6.2-2.5C43.4,16.1,41.4,14.4,39.2,14.8 M54.6,21c-3,0.4-4.2,4-2.1,6.2
		c1.7,1.7,4.6,1.3,5.7-0.9C59.7,23.7,57.5,20.7,54.6,21 M24,21.1c-2.9,0.4-4.1,4.1-2,6.2c1.7,1.7,4.7,1.3,5.8-0.9
		C29.1,23.7,27,20.7,24,21.1 M1.4,28.5c0,0-0.1,0.7-0.3,1.4c-1.4,6.5-1.4,13.5,0,20c0.2,0.8,0.3,1.4,0.3,1.4c0.2,0.2,2.8-0.6,4-1.2
		c8.8-4.6,8-17.5-1.3-21C3.2,28.8,1.4,28.4,1.4,28.5 M77.6,28.6c-6.5,1.2-10.6,7.6-9.1,14c1,4.1,4.2,7.4,8.3,8.5
		c0.5,0.1,1.5,0.3,1.5,0.3c0,0,0.2-0.7,0.3-1.5c1.5-6.6,1.5-13.3,0-19.9C78.3,28.2,78.4,28.4,77.6,28.6 M17.6,36.3
		c-2.9,0.5-4,4.1-1.9,6.1c2.3,2.3,6.2,0.7,6.2-2.5C21.9,37.6,19.9,35.9,17.6,36.3 M60.8,36.3c-2.9,0.5-4,4.1-1.9,6.1
		c2,2,5.4,1,6.1-1.6C65.7,38.3,63.4,35.9,60.8,36.3 M23.9,51.6c-3,0.6-4,4.4-1.7,6.4c2.2,1.8,5.6,0.5,5.9-2.4
		C28.4,53.2,26.3,51.2,23.9,51.6 M54.6,51.6c-4.4,0.8-3.9,7.2,0.5,7.2c4.2,0,5-5.8,1.1-7.1C55.8,51.6,54.9,51.6,54.6,51.6
		 M10.8,56.6c-2.2,0.2-5.1,1.3-6.2,2.4c0,0,0.4,0.6,0.8,1.3C9,66,13.8,70.8,19.5,74.4c1.2,0.7,1.2,0.8,1.3,0.7
		c0.2-0.2,0.9-1.3,1.2-1.9c3.4-6.9-0.7-15.2-8.3-16.5c-0.5-0.1-2-0.2-2.4-0.2C11.3,56.5,11,56.5,10.8,56.6 M67.1,56.6
		c-8.8,0.7-13.6,10.8-8.6,18.1c0.2,0.3,0.3,0.5,0.4,0.5c0.1,0.1,2.4-1.4,3.7-2.4c4.6-3.4,8.7-7.7,11.7-12.5c0.4-0.7,0.8-1.2,0.8-1.3
		c0-0.1-0.6-0.5-1.2-0.9C71.8,56.9,69.5,56.4,67.1,56.6 M39.4,58c-3.1,0.4-4.3,4.5-1.8,6.4c2.6,2,6.3,0,5.9-3.2
		c-0.2-1.8-2-3.4-3.7-3.2C39.7,58,39.5,58,39.4,58 M38.3,68.4c-4.6,0.6-8.3,3.8-9.6,8.3c-0.1,0.5-0.4,1.7-0.3,1.8
		c0,0,0.7,0.2,1.4,0.3c6.6,1.5,13.4,1.5,20,0c0.8-0.2,1.4-0.3,1.4-0.3c0,0-0.2-1.2-0.3-1.6C49.5,71.3,44,67.6,38.3,68.4"/>
	<path id="path4" class="st1" d="M5.5,86.3c0.1,0,0.2,0,0.2,0c0.1,0,0,0-0.1,0C5.5,86.3,5.4,86.3,5.5,86.3 M6.9,86.3
		c0.1,0,0.2,0,0.2,0c0.1,0,0,0-0.1,0S6.8,86.3,6.9,86.3 M17.1,86.3c0.1,0,0.2,0,0.3,0c0.1,0,0,0-0.1,0
		C17.1,86.3,17.1,86.3,17.1,86.3 M19,86.3c0.1,0,0.2,0,0.2,0c0.1,0,0,0-0.1,0C18.9,86.3,18.9,86.3,19,86.3 M33.7,86.3
		c0.1,0,0.1,0,0.2,0C34,86.3,33.9,86.3,33.7,86.3C33.7,86.3,33.7,86.3,33.7,86.3 M34.9,86.3c0,0,0.1,0,0.2,0
		C35.1,86.3,35.1,86.3,34.9,86.3C34.9,86.3,34.8,86.3,34.9,86.3 M59.3,86.3c0.1,0,0.2,0,0.2,0c0.1,0,0,0-0.1,0
		C59.3,86.3,59.2,86.3,59.3,86.3 M61.1,86.3c0.1,0,0.2,0,0.2,0c0.1,0,0,0-0.1,0C61.1,86.3,61.1,86.3,61.1,86.3 M73.5,86.3
		c0.1,0,0.1,0,0.2,0C73.8,86.3,73.7,86.3,73.5,86.3C73.5,86.3,73.5,86.3,73.5,86.3 M75.1,86.3c0.1,0,0.2,0,0.2,0c0.1,0,0,0-0.1,0
		C75.1,86.3,75,86.3,75.1,86.3 M7.4,86.4c0,0,0.1,0,0.2,0C7.6,86.4,7.5,86.4,7.4,86.4C7.4,86.4,7.3,86.4,7.4,86.4 M16.7,86.4
		c0,0,0.1,0,0.2,0C16.9,86.4,16.9,86.4,16.7,86.4C16.7,86.4,16.7,86.4,16.7,86.4 M58.9,86.4c0,0,0.1,0,0.2,0
		C59.1,86.4,59.1,86.4,58.9,86.4C58.9,86.4,58.8,86.4,58.9,86.4 M75.7,86.4c0,0,0.1,0,0.2,0C75.9,86.4,75.8,86.4,75.7,86.4
		C75.6,86.4,75.6,86.4,75.7,86.4 M76.1,86.4c0.1,0,0.2,0,0.3,0c0.1,0,0.1,0,0,0C76.3,86.4,76.1,86.4,76.1,86.4
		C76,86.4,76,86.4,76.1,86.4 M28.1,93.2l0,6.7l1.4,0c0.8,0,1.4,0,1.4,0s-0.6,0-1.4,0l-1.4,0L28.1,93.2l0-6.7l1.3,0l1.3,0l-1.4,0
		l-1.4,0L28.1,93.2 M32.7,86.5c-0.3,0.1-0.2,0.1,0.1,0c0.2-0.1,0.2-0.1,0.2-0.1C33,86.4,32.9,86.5,32.7,86.5 M41.5,86.5
		c0,0,0.6,0,1.4,0c1.1,0,1.5,0,1.5,0c0,0,0,0,0,0C44.4,86.5,41.5,86.4,41.5,86.5 M50.6,86.5C50.6,86.5,50.6,86.5,50.6,86.5
		C50.6,86.6,50.6,86.6,50.6,86.5c0,0,0.4,0,1.5,0c0.8,0,1.4,0,1.4,0C53.6,86.4,50.7,86.4,50.6,86.5 M62.3,86.5c0.1,0,0.2,0,0.2,0
		c0.1,0,0.1,0,0,0C62.5,86.5,62.4,86.4,62.3,86.5C62.2,86.4,62.2,86.5,62.3,86.5 M15.6,86.6c-0.1,0-0.2,0.1-0.2,0.1
		C15.4,86.7,15.5,86.7,15.6,86.6c0.2,0,0.3-0.1,0.3-0.1C15.8,86.5,15.7,86.6,15.6,86.6 M20.9,86.7c0.1,0.1,0.3,0.1,0.3,0.1
		c0,0-0.4-0.2-0.5-0.2C20.7,86.6,20.8,86.6,20.9,86.7 M57.7,86.7C57.6,86.7,57.6,86.7,57.7,86.7c0.1,0,0.3-0.1,0.2-0.1
		C57.8,86.6,57.8,86.6,57.7,86.7 M8.5,86.6c0,0,0.6,0.3,0.6,0.3C9.1,86.9,8.8,86.7,8.5,86.6C8.6,86.6,8.5,86.6,8.5,86.6 M77.3,86.7
		c0.1,0.1,0.3,0.1,0.3,0.1c0,0-0.4-0.2-0.5-0.2C77.1,86.6,77.2,86.7,77.3,86.7 M71.8,86.8C71.7,86.8,71.7,86.8,71.8,86.8
		C71.7,86.8,71.8,86.8,71.8,86.8c0.2,0,0.2-0.1,0.2-0.1C71.9,86.7,71.8,86.7,71.8,86.8 M3.7,86.8C3.6,86.8,3.6,86.9,3.7,86.8
		C3.6,86.9,3.7,86.8,3.7,86.8c0.2,0,0.2-0.1,0.2-0.1C3.8,86.7,3.7,86.8,3.7,86.8 M41.6,86.8c0,0.1,0.1,0.2,0.1,0.2c0,0.1,0,0,0,0
		C41.7,86.9,41.6,86.8,41.6,86.8C41.6,86.7,41.6,86.7,41.6,86.8 M57.2,86.9C57.1,86.9,57,87,57,87c0,0,0.5-0.2,0.5-0.3
		C57.6,86.7,57.4,86.8,57.2,86.9 M21.3,86.8c0,0,0.5,0.3,0.5,0.3C21.8,87,21.3,86.8,21.3,86.8C21.3,86.8,21.2,86.8,21.3,86.8
		 M50.4,87.1c-0.1,0.2-0.1,0.3-0.1,0.4C50.3,87.5,50.4,87.3,50.4,87.1c0.1-0.1,0.1-0.3,0.1-0.3C50.5,86.8,50.5,86.9,50.4,87.1
		 M36.8,86.9c0,0,0.1,0.1,0.1,0.1c0.1,0,0.1,0.1,0.1,0.1s-0.1-0.1-0.1-0.1C36.8,86.9,36.8,86.8,36.8,86.9 M3.1,87.1
		c-0.1,0.1-0.2,0.1-0.2,0.1c0,0,0.3-0.2,0.4-0.2C3.4,86.9,3.3,87,3.1,87.1 M78.4,87.2c0.2,0.1,0.5,0.3,0.6,0.4l0.3,0.2l-0.7,0.7
		c-0.4,0.4-0.8,0.8-0.8,0.9c-0.1,0.1,0.3-0.2,0.7-0.7c0.5-0.5,0.9-0.9,0.9-0.9c0-0.1-1.1-0.8-1.3-0.8C78,87,78.2,87.1,78.4,87.2
		 M37.1,87c0,0,0.1,0.1,0.1,0.1c0.1,0.1,0.1,0.1,0.1,0.1c0,0-0.1-0.1-0.1-0.1C37.2,87.1,37.1,87,37.1,87 M31.4,87.3l-0.2,0.1
		L31.4,87.3c0.2-0.1,0.2-0.1,0.2-0.1C31.5,87.1,31.5,87.2,31.4,87.3 M53.2,87.3c0,0.1-0.1,0.2-0.1,0.2
		C53.2,87.6,53.2,87.5,53.2,87.3c0.1-0.1,0.1-0.2,0.1-0.2C53.3,87.1,53.3,87.2,53.2,87.3 M56.5,87.3l-0.2,0.1L56.5,87.3
		c0.2-0.1,0.2-0.1,0.2-0.1C56.7,87.2,56.6,87.2,56.5,87.3 M70.8,87.3c-0.3,0.2-0.6,0.5-0.7,0.7c-0.1,0.1,0,0,0.2-0.2
		C70.5,87.6,70.7,87.4,70.8,87.3c0.1-0.1,0.2-0.1,0.2-0.1C71,87.2,70.9,87.2,70.8,87.3 M9.6,87.2c0,0,0.1,0.1,0.2,0.1
		c0.1,0.1,0.1,0.1,0.1,0C9.8,87.3,9.6,87.2,9.6,87.2 M2.6,87.4l-0.2,0.1L2.6,87.4c0.2-0.1,0.2-0.1,0.2-0.1
		C2.8,87.3,2.7,87.3,2.6,87.4 M37.8,87.6c0.4,0.5,0.4,0.5,0.3,0.3C38,87.8,37.9,87.7,37.8,87.6C37.4,87.3,37.4,87.3,37.8,87.6
		 M41.8,87.4c0,0.1,0.1,0.2,0.1,0.2c0,0.1,0,0,0,0C41.9,87.4,41.8,87.4,41.8,87.4C41.8,87.3,41.8,87.3,41.8,87.4 M64.3,87.3
		c0.4,0.4,0.7,0.6,0.5,0.4C64.7,87.6,64.5,87.4,64.3,87.3C64.4,87.3,64.3,87.3,64.3,87.3 M31,87.6c-0.1,0.1-0.2,0.2-0.1,0.2
		C30.8,87.8,30.9,87.7,31,87.6C31.2,87.4,31.2,87.4,31,87.6 M55.9,87.8c-0.2,0.2-0.4,0.4-0.4,0.4c0,0,0.4,0.4,0.9,0.9
		c0.5,0.5,0.9,0.8,0.9,0.8c0,0,0.2-0.2,0.4-0.4c0.2-0.2,0.5-0.4,0.6-0.5c0.1-0.1,0.2-0.1,0.2-0.1c0-0.1-0.5,0.2-0.8,0.6
		c-0.2,0.2-0.4,0.4-0.4,0.4c0,0-0.5-0.4-1.4-1.3l-0.4-0.4L55.9,87.8c0.3-0.2,0.4-0.4,0.4-0.4C56.3,87.5,56.1,87.6,55.9,87.8
		 M2.1,87.9l-0.3,0.4L2.1,87.9c0.3-0.3,0.4-0.4,0.4-0.4C2.4,87.6,2.3,87.7,2.1,87.9 M13.7,87.8L13.6,88L13.7,87.8
		c0.2-0.1,0.2-0.2,0.2-0.2C13.9,87.7,13.8,87.7,13.7,87.8 M53,87.8c0,0.1,0,0.2,0,0.2C53,88,53.1,87.9,53,87.8
		c0.1,0,0.1-0.1,0.1-0.1C53.1,87.7,53.1,87.7,53,87.8 M42,87.9c0,0.1,0.1,0.2,0.1,0.2c0,0.1,0,0,0,0C42.1,88,42,87.9,42,87.9
		C42,87.8,42,87.8,42,87.9 M10.6,88.1c0.1,0.1,0.1,0.1,0.1,0.1C10.8,88.2,10.7,88.1,10.6,88.1l-0.1-0.2L10.6,88.1 M13.5,88.1
		c-0.1,0.1-0.1,0.1,0.7,0.8l0.6,0.5l-0.7-0.6C13.4,88.2,13.4,88.2,13.5,88.1c0.1-0.1,0.1-0.1,0.1-0.1C13.6,88,13.5,88.1,13.5,88.1
		 M52.9,88.3c0,0.1,0,0.2,0,0.2C52.8,88.5,52.9,88.5,52.9,88.3c0.1,0,0.1-0.1,0.1-0.1C52.9,88.2,52.9,88.3,52.9,88.3 M23.2,88.4
		c0.1,0.1,0.1,0.2,0.1,0.2c0,0-0.2-0.4-0.2-0.4C23.1,88.2,23.1,88.3,23.2,88.4 M38.3,88.4c0.1,0.2,0.1,0.2,0.1,0.1
		C38.5,88.5,38.4,88.4,38.3,88.4l-0.1-0.1L38.3,88.4 M1.7,88.4c-0.1,0.2-0.2,0.3-0.2,0.3C1.5,88.6,1.6,88.6,1.7,88.4
		C1.8,88.3,1.8,88.2,1.7,88.4 M69.6,88.6c-0.1,0.1-0.1,0.3-0.1,0.3C69.5,88.9,69.6,88.8,69.6,88.6c0.1-0.1,0.2-0.2,0.1-0.2
		C69.8,88.4,69.7,88.5,69.6,88.6 M9.6,89.3L8.9,90l-0.1-0.1l-0.1-0.1l0.1,0.1C8.8,90,8.8,90,8.9,90c0.1,0,1.6-1.5,1.5-1.5
		C10.4,88.5,10,88.9,9.6,89.3 M45.1,88.6c0.1,0.4,0.5,1.4,0.5,1.3C45.6,89.8,45.1,88.6,45.1,88.6C45.1,88.5,45.1,88.5,45.1,88.6
		 M38.6,89c0.1,0.2,0.2,0.4,0.2,0.4c0,0-0.2-0.7-0.3-0.7C38.5,88.6,38.5,88.8,38.6,89 M65.5,88.7c0.2,0.5,0.3,0.8,0.3,0.8
		C65.8,89.3,65.6,88.8,65.5,88.7C65.5,88.6,65.4,88.6,65.5,88.7 M74,88.6c0.2,0,0.6,0,0.8,0c0.2,0,0,0-0.4,0
		C74,88.6,73.8,88.6,74,88.6 M17.7,88.7c0.2,0,0.5,0,0.8,0c0.2,0,0,0-0.4,0C17.7,88.6,17.5,88.7,17.7,88.7 M59.9,88.7
		c0.2,0,0.5,0,0.8,0c0.2,0,0,0-0.4,0C59.9,88.6,59.7,88.7,59.9,88.7 M75.3,88.7c0,0,0.1,0,0.2,0C75.5,88.6,75.4,88.6,75.3,88.7
		C75.3,88.6,75.2,88.6,75.3,88.7 M6.1,88.8c0.1,0,0.3,0,0.4,0c0.1,0,0,0-0.2,0C6.1,88.7,6,88.7,6.1,88.8 M33.4,88.8
		c0.1,0,0.3,0,0.4,0c0.1,0,0,0-0.2,0C33.4,88.7,33.3,88.7,33.4,88.8 M42.3,88.8c0,0.1,0.1,0.2,0.1,0.2c0,0.1,0,0,0,0
		C42.4,88.9,42.4,88.8,42.3,88.8C42.3,88.7,42.3,88.7,42.3,88.8 M6.8,88.8c0,0,0.1,0,0.2,0c0.1,0,0.2,0,0.1,0
		C7,88.8,6.8,88.8,6.8,88.8 M49.8,89c0,0.1-0.1,0.2-0.1,0.2C49.7,89.2,49.8,89.1,49.8,89c0.1,0,0.1-0.1,0.1-0.1S49.8,88.9,49.8,89
		 M72.7,88.9C72.5,89,72.5,89,72.7,88.9c0.1,0,0.2,0,0.2-0.1C72.9,88.8,72.9,88.8,72.7,88.9 M16.2,89c-0.1,0.1-0.2,0.1-0.2,0.1
		c0,0,0.4-0.2,0.4-0.2C16.5,88.8,16.4,88.9,16.2,89 M62.1,89c0.2,0.1,0.4,0.3,0.5,0.4c0.1,0.1,0.2,0.2,0.2,0.1
		C62.7,89.4,62.4,89.1,62.1,89C61.8,88.8,61.8,88.9,62.1,89 M4.8,89.1c-0.2,0.1-0.3,0.2-0.3,0.2c0,0,0.6-0.3,0.6-0.3
		C5.2,88.9,5.1,88.9,4.8,89.1 M32.3,89c-0.1,0.1-0.2,0.1-0.2,0.1c0,0,0.4-0.2,0.4-0.2C32.6,88.9,32.4,88.9,32.3,89 M34.7,88.9
		c0,0,0.4,0.2,0.4,0.2C35.2,89.1,34.8,88.9,34.7,88.9C34.7,88.9,34.7,88.9,34.7,88.9 M7.6,89c0,0,0.1,0.1,0.1,0.1
		c0.1,0,0.1,0.1,0.1,0.1c0,0-0.1-0.1-0.1-0.1S7.6,89,7.6,89 M72.3,89.2c-0.3,0.3-0.6,1-0.4,0.9c0,0,0-0.1,0-0.1
		C71.9,89.8,72.1,89.4,72.3,89.2c0.2-0.1,0.2-0.2,0.2-0.2C72.5,89,72.4,89.1,72.3,89.2 M76.7,89c0.1,0,0.3,0.2,0.3,0.2
		C77,89.2,76.8,89,76.7,89C76.7,89,76.7,89,76.7,89 M52.5,89.3c0,0.1-0.1,0.2-0.1,0.2C52.4,89.6,52.5,89.5,52.5,89.3
		c0.1-0.1,0.1-0.2,0.1-0.2C52.6,89.1,52.5,89.2,52.5,89.3 M1.1,89.3C1,89.4,1,89.5,1,89.5C1,89.5,1.1,89.4,1.1,89.3
		C1.2,89.1,1.2,89.1,1.1,89.3 M31.7,89.4l-0.3,0.3L31.7,89.4c0.1-0.1,0.3-0.2,0.3-0.2s0,0,0,0C32,89.2,31.9,89.3,31.7,89.4
		 M15.5,89.6c-0.3,0.3-0.3,0.3-0.4,0.2L15,89.7l0.1,0.1c0.1,0.1,0.1,0.1,0.1,0.1c0,0,0.6-0.7,0.6-0.7C15.8,89.3,15.6,89.4,15.5,89.6
		 M42.5,89.4c0,0.1,0.1,0.2,0.1,0.2c0,0.1,0,0,0,0C42.6,89.4,42.6,89.3,42.5,89.4C42.5,89.3,42.5,89.3,42.5,89.4 M69.3,89.4
		c0,0.1,0,0.2,0,0.2C69.3,89.6,69.4,89.5,69.3,89.4c0.1,0,0.1-0.1,0.1-0.1C69.4,89.3,69.4,89.3,69.3,89.4 M8.2,89.4
		c0,0,0.1,0.1,0.2,0.2l0.2,0.1l-0.1-0.2C8.2,89.4,8.2,89.3,8.2,89.4 M20.6,89.6c0.2,0.2,0.2,0.3,0.1,0.1c0-0.1-0.1-0.2-0.2-0.2
		C20.5,89.4,20.5,89.5,20.6,89.6 M38.8,89.5c0,0,0,0.1,0,0.2c0,0.1,0,0.1,0,0C38.9,89.6,38.9,89.5,38.8,89.5
		C38.8,89.4,38.8,89.4,38.8,89.5 M4,89.8C3.7,90,3.7,90.1,3.8,90c0.2-0.2,0.3-0.4,0.3-0.4C4.1,89.6,4,89.6,4,89.8 M0.9,89.8
		c0,0.1-0.1,0.2-0.1,0.2C0.8,90,0.8,89.9,0.9,89.8C1,89.7,0.9,89.6,0.9,89.8 M52.3,89.8c0,0.1,0,0.2,0,0.2S52.3,89.9,52.3,89.8
		c0.1,0,0.1-0.1,0.1-0.1C52.4,89.7,52.3,89.7,52.3,89.8 M31.4,89.8c-0.1,0.1-0.2,0.3-0.1,0.3c0,0,0.1-0.1,0.1-0.2
		C31.5,89.7,31.5,89.7,31.4,89.8 M42.7,89.9c0,0.1,0.1,0.2,0.1,0.2c0,0.1,0,0,0,0C42.8,90,42.8,89.9,42.7,89.9
		C42.7,89.8,42.7,89.8,42.7,89.9 M23.7,90C23.7,90.1,23.7,90.2,23.7,90C23.7,90.1,23.7,90,23.7,90C23.7,89.9,23.7,89.9,23.7,90
		 M0.7,90.2c0,0.1-0.1,0.2-0.1,0.2C0.7,90.4,0.7,90.4,0.7,90.2c0.1,0,0.1-0.1,0.1-0.1C0.8,90,0.7,90.1,0.7,90.2 M39,90.2
		C39,90.3,39,90.3,39,90.2C39,90.2,39,90.1,39,90.2C39,90.1,39,90.1,39,90.2 M20.9,90.1c0,0.1,0.1,0.3,0.1,0.2
		C21,90.3,20.9,90.2,20.9,90.1C20.9,90.1,20.9,90.1,20.9,90.1 M65.9,90.2c0,0.1,0,0.3,0,0.4C66,90.9,66,90.6,65.9,90.2
		C65.9,90.1,65.9,90.1,65.9,90.2 M69.2,90.5c0,0.2,0,0.3,0,0.2c0-0.1,0-0.3,0-0.4C69.2,90.2,69.2,90.2,69.2,90.5 M3.5,90.4
		c-0.1,0.1-0.1,0.3-0.1,0.3C3.4,90.7,3.5,90.6,3.5,90.4c0.1-0.1,0.2-0.2,0.1-0.2C3.6,90.2,3.6,90.3,3.5,90.4 M31,90.6
		c-0.1,0.2-0.1,0.4-0.1,0.4c0,0.1,0,0,0.1-0.2c0-0.2,0.1-0.4,0.1-0.4c0,0,0-0.1,0-0.1C31.1,90.2,31.1,90.4,31,90.6 M36,90.3
		c0,0,0,0.1,0.1,0.2c0,0.1,0.1,0.1,0.1,0.1C36.2,90.5,36.1,90.4,36,90.3C36.1,90.3,36,90.2,36,90.3 M45.7,90.3
		c0,0.1,0.6,1.8,0.6,1.8c0,0-0.1-0.4-0.3-0.9C45.8,90.6,45.7,90.2,45.7,90.3 M23.7,95.1v4.8h-1.3h-1.3v-0.6c0-0.3,0-0.6,0-0.6
		c0,0-0.2,0.1-0.4,0.3c-0.5,0.4-0.4,0.4-0.4,0.4c0,0,0.2-0.1,0.4-0.3l0.4-0.3v0.6v0.6h1.4h1.4L23.7,95.1c0-2.6,0-4.8,0-4.8
		C23.7,90.3,23.7,92.4,23.7,95.1 M21,90.6C21,90.7,21,90.8,21,90.6C21,90.7,21,90.6,21,90.6C21,90.5,21,90.5,21,90.6 M39,90.8
		c0,0.2,0,0.3,0,0.2c0-0.1,0-0.3,0-0.3C39,90.5,39,90.6,39,90.8 M71.9,90.6c0,0.1,0.1,0.2,0.1,0.2c0,0,0-0.3-0.1-0.4
		C71.9,90.5,71.9,90.5,71.9,90.6 M63.2,90.7C63.2,90.8,63.2,90.8,63.2,90.7C63.2,90.7,63.2,90.6,63.2,90.7
		C63.2,90.5,63.2,90.6,63.2,90.7 M43,90.7c0,0.1,0.1,0.2,0.1,0.3c0.1,0.1,0.1,0.1,0,0C43.1,90.9,43.1,90.8,43,90.7
		C43,90.6,43,90.6,43,90.7 M51.9,90.9c0,0.1,0,0.2,0,0.2S51.9,91,51.9,90.9c0.1,0,0.1-0.1,0.1-0.1S52,90.8,51.9,90.9 M0.5,91
		c0,0.1,0,0.2,0,0.2c0,0.1,0,0,0-0.1C0.6,90.9,0.5,90.8,0.5,91 M65.9,95.4l0,4.5l-1.3,0l-1.3,0l1.4,0c1,0,1.4,0,1.4,0
		C66,99.9,66,97.8,65.9,95.4l0-4.5L65.9,95.4 M36.3,95.4c0,2.5,0,4.5,0,4.5c0,0,0.3,0.1,1.4,0l1.4,0l-1.4,0l-1.4,0l0-4.3
		c0-2.4,0-4.4,0-4.5C36.3,91,36.3,92.9,36.3,95.4 M69.3,91.1C69.3,91.2,69.3,91.2,69.3,91.1C69.3,91.1,69.3,91.1,69.3,91.1
		C69.3,91,69.3,91,69.3,91.1 M21,91.5V92L19,92l-2.1,0l2.1,0l2.1,0L21,91.5c0-0.3,0-0.5,0-0.5S21,91.2,21,91.5 M3.2,91.2
		c0,0.1,0,0.2,0,0.2C3.2,91.4,3.2,91.3,3.2,91.2C3.3,91,3.2,91,3.2,91.2 M43.2,91.2c0,0.1,0.1,0.2,0.1,0.3c0.1,0.1,0.1,0.1,0,0
		C43.3,91.4,43.3,91.3,43.2,91.2C43.2,91.1,43.2,91.1,43.2,91.2 M51.8,91.3c0,0.1,0,0.2,0,0.2S51.8,91.4,51.8,91.3
		c0.1,0,0.1-0.1,0.1-0.1S51.8,91.2,51.8,91.3 M30.9,91.4c0,0.1,0,0.2,0,0.1c0-0.1,0-0.2,0-0.2C30.9,91.2,30.9,91.2,30.9,91.4
		 M72.2,91.2c0.1,0.1,0.5,0.4,0.6,0.4c0,0,0-0.1-0.2-0.1C72.5,91.4,72.3,91.3,72.2,91.2C72.1,91.2,72.1,91.1,72.2,91.2 M69.3,91.4
		c0,0.2,0.3,1.1,0.4,1.1c0,0,0-0.1-0.1-0.2c-0.1-0.1-0.2-0.4-0.2-0.6C69.4,91.4,69.3,91.3,69.3,91.4 M0.4,91.7
		C0.4,91.8,0.4,91.9,0.4,91.7C0.4,91.8,0.4,91.7,0.4,91.7C0.4,91.6,0.4,91.6,0.4,91.7 M43.4,91.7c0,0.1,0.1,0.2,0.1,0.2
		c0,0.1,0,0,0,0C43.5,91.8,43.4,91.7,43.4,91.7C43.4,91.6,43.4,91.7,43.4,91.7 M51.6,91.8c0,0.1,0,0.2,0,0.2
		C51.6,92,51.6,91.9,51.6,91.8c0.1,0,0.1-0.1,0.1-0.1C51.7,91.6,51.6,91.7,51.6,91.8 M3.1,91.9C3.1,92,3.1,92.1,3.1,91.9
		C3.1,92,3.1,91.9,3.1,91.9C3.1,91.8,3.1,91.8,3.1,91.9 M73.8,91.8c0.1,0,0.2,0,0.2,0c0.1,0,0,0-0.1,0
		C73.8,91.8,73.8,91.8,73.8,91.8 M74.4,91.9c0.1,0,0.2,0,0.2,0c0.1,0,0,0-0.1,0S74.4,91.9,74.4,91.9 M74.9,91.9c0.1,0,0.2,0,0.2,0
		c0.1,0,0,0-0.1,0S74.9,91.9,74.9,91.9 M75.5,92c0.1,0,0.2,0,0.2,0c0.1,0,0,0-0.1,0S75.5,92,75.5,92 M76,92c0,0,0.1,0,0.2,0
		C76.3,92,76.2,92,76,92C76,92,76,92,76,92 M0.3,92.2c0,0.1,0,0.2,0,0.1c0-0.1,0-0.2,0-0.2C0.3,92.1,0.3,92.1,0.3,92.2 M60.1,92.1
		c0.6,0,1.5,0,2.1,0c0.6,0,0.1,0-1,0C60,92.1,59.6,92.1,60.1,92.1 M16.3,92.1c-0.1,0,0,0,0.2,0c0.2,0,0.3,0,0.3,0
		C16.9,92.1,16.5,92.1,16.3,92.1 M58.7,92.1c0.1,0,0.2,0,0.2,0c0.1,0,0,0-0.1,0C58.7,92.1,58.7,92.1,58.7,92.1 M3.1,93.1
		c0,0.5,0,0.7,0,0.5c0-0.3,0-0.7,0-0.9C3.1,92.4,3.1,92.6,3.1,93.1 M15,92.5C14.6,92.7,14.7,92.7,15,92.5c0.2-0.1,0.4-0.1,0.3-0.1
		C15.3,92.4,15.2,92.4,15,92.5 M69.8,92.6c0,0,0.1,0.1,0.1,0.2c0.1,0,0,0,0-0.1C69.8,92.4,69.7,92.4,69.8,92.6 M43.7,92.7
		c0,0.1,0.1,0.2,0.1,0.3c0.1,0.1,0.1,0.1,0,0C43.9,92.9,43.8,92.8,43.7,92.7C43.7,92.6,43.7,92.6,43.7,92.7 M51.2,92.8
		c0,0.1-0.1,0.2-0.1,0.2C51.2,93,51.2,93,51.2,92.8c0.1-0.1,0.1-0.2,0.1-0.2C51.3,92.6,51.3,92.7,51.2,92.8 M14.5,92.8
		C14.3,92.9,14.3,92.9,14.5,92.8c0,0,0.2-0.1,0.2-0.1C14.7,92.7,14.6,92.7,14.5,92.8 M78.6,92.9c0.1,0.1,0.3,0.3,0.5,0.5
		c0.1,0.1,0.2,0.2,0.1,0.1c-0.1-0.2-0.6-0.6-0.7-0.7C78.4,92.8,78.5,92.8,78.6,92.9 M56.4,93c-0.4,0.3-1.2,1.3-1.1,1.4
		c0,0,0.1-0.1,0.2-0.4c0.2-0.4,0.7-0.9,1-1.2c0.1-0.1,0.1-0.1,0.1-0.1C56.6,92.8,56.5,92.9,56.4,93 M70.2,93.1
		c0.1,0.1,0.3,0.3,0.4,0.3C70.7,93.4,70.7,93.4,70.2,93.1L70,92.8L70.2,93.1 M13.9,93.3l-0.2,0.2L13.9,93.3c0.2-0.1,0.2-0.2,0.2-0.2
		C14,93.1,14,93.2,13.9,93.3 M43.9,93.2c0,0.1,0.1,0.2,0.1,0.2c0,0.1,0,0,0,0C44,93.3,44,93.2,43.9,93.2
		C43.9,93.1,43.9,93.1,43.9,93.2 M51.1,93.2c0,0.1,0,0.2,0,0.2C51,93.4,51.1,93.4,51.1,93.2c0.1,0,0.1-0.1,0.1-0.1
		C51.1,93.1,51.1,93.2,51.1,93.2 M13.5,93.7c-0.1,0.2-0.2,0.3-0.1,0.3c0.1-0.1,0.3-0.4,0.3-0.4C13.6,93.5,13.6,93.6,13.5,93.7
		 M0.3,94.1c0,0.1,0,0.2,0,0.1c0-0.1,0-0.2,0-0.3C0.3,93.9,0.3,93.9,0.3,94.1 M79.4,93.9c0,0,0,0.1,0.1,0.2c0,0.1,0.1,0.1,0.1,0.1
		S79.5,94.1,79.4,93.9C79.5,94,79.4,93.9,79.4,93.9 M17.4,94c0.1,0,0.2,0,0.2,0c0.1,0,0,0-0.1,0C17.4,94,17.4,94,17.4,94 M21,94.6
		c0,0.3,0,0.5,0,0.3c0-0.2,0-0.5,0-0.6C21,94.1,21,94.2,21,94.6 M59.6,94c0.1,0,0.2,0,0.2,0c0.1,0,0,0-0.1,0
		C59.6,94,59.5,94,59.6,94 M16.7,94.1c-0.2,0.1-0.1,0.1,0.1,0c0.1,0,0.1-0.1,0.1-0.1C16.9,94.1,16.8,94.1,16.7,94.1 M72.8,94.1
		c0,0,0.1,0,0.2,0C73,94.1,73,94.1,72.8,94.1C72.8,94.1,72.7,94.1,72.8,94.1 M73.2,94.2c0.1,0,0.2,0,0.2,0c0.1,0,0,0-0.1,0
		C73.2,94.1,73.2,94.1,73.2,94.2 M73.8,94.2c0.1,0,0.2,0,0.2,0c0.1,0,0,0-0.1,0C73.8,94.2,73.8,94.2,73.8,94.2 M74.2,94.2
		c0,0,0.2,0,0.5,0c0.4,0,0.4,0,0.2,0C74.6,94.2,74.2,94.2,74.2,94.2 M3.1,94.4C3.1,94.5,3.1,94.5,3.1,94.4
		C3.1,94.4,3.1,94.4,3.1,94.4C3.1,94.3,3.1,94.3,3.1,94.4 M75.4,94.3c0,0,0.1,0,0.2,0C75.6,94.3,75.5,94.3,75.4,94.3
		C75.4,94.3,75.3,94.3,75.4,94.3 M58.2,94.6c-0.1,0.1-0.2,0.2-0.3,0.3c-0.1,0.1-0.1,0.1,0,0C58,94.8,58.1,94.7,58.2,94.6
		C58.5,94.3,58.5,94.3,58.2,94.6 M16,94.6l-0.2,0.2L16,94.6c0.2-0.2,0.2-0.2,0.2-0.2C16.2,94.4,16.1,94.5,16,94.6 M0.4,94.6
		C0.4,94.7,0.4,94.7,0.4,94.6C0.4,94.6,0.4,94.6,0.4,94.6C0.4,94.5,0.4,94.5,0.4,94.6 M44.5,94.7c0,0.1,0.1,0.2,0.1,0.3
		c0.1,0.1,0.1,0.1,0,0C44.6,94.9,44.5,94.8,44.5,94.7C44.5,94.6,44.4,94.6,44.5,94.7 M50.5,94.7c0,0.1,0,0.2,0,0.2
		C50.5,94.9,50.5,94.8,50.5,94.7c0.1,0,0.1-0.1,0.1-0.1C50.6,94.6,50.5,94.6,50.5,94.7 M79.7,94.6c0,0.1,0.1,0.3,0.1,0.2
		C79.8,94.8,79.7,94.7,79.7,94.6C79.7,94.6,79.7,94.6,79.7,94.6 M76.7,94.8c0.1,0.1,0.3,0.3,0.3,0.4c0.1,0.1,0.1,0.2,0.1,0.2
		c0-0.2-0.5-0.8-0.6-0.8C76.5,94.6,76.5,94.7,76.7,94.8 M55.1,94.9c0,0.1,0,0.3,0,0.3C55.1,95.2,55.1,95.1,55.1,94.9
		c0.1-0.1,0.1-0.2,0.1-0.2C55.2,94.7,55.2,94.8,55.1,94.9 M47.2,94.8c0.1,0.3,0.3,0.9,0.3,0.9C47.5,95.6,47.2,94.8,47.2,94.8
		C47.2,94.7,47.2,94.8,47.2,94.8 M0.4,94.9c0,0.1,0,0.2,0,0.2C0.5,95.3,0.5,95.1,0.4,94.9C0.4,94.8,0.4,94.8,0.4,94.9 M15.7,95.1
		c-0.1,0.1-0.1,0.2-0.1,0.3C15.6,95.4,15.6,95.3,15.7,95.1C15.8,94.8,15.8,94.8,15.7,95.1 M3.2,95c0,0.1,0,0.1,0,0.2
		C3.3,95.3,3.3,95.2,3.2,95C3.2,94.9,3.2,94.9,3.2,95 M79.8,95.1C79.8,95.2,79.8,95.2,79.8,95.1C79.8,95.1,79.8,95.1,79.8,95.1
		C79.8,95,79.8,95,79.8,95.1 M12.9,95.2c0,0.1,0,0.1,0,0.1C12.9,95.3,12.9,95.2,12.9,95.2C12.9,95.1,12.9,95.1,12.9,95.2 M44.7,95.2
		c0,0.1,0.1,0.2,0.1,0.2c0,0.1,0,0,0,0C44.7,95.3,44.7,95.2,44.7,95.2C44.6,95.1,44.6,95.1,44.7,95.2 M50.3,95.2c0,0.1,0,0.2,0,0.2
		S50.3,95.4,50.3,95.2c0.1,0,0.1-0.1,0.1-0.1C50.4,95.1,50.4,95.2,50.3,95.2 M55,95.4C55,95.5,55.1,95.6,55,95.4
		C55.1,95.5,55.1,95.4,55,95.4C55.1,95.3,55,95.3,55,95.4 M63.2,95.6C63.2,95.7,63.2,95.7,63.2,95.6c0,0,0-0.1,0-0.1
		C63.2,95.4,63.2,95.4,63.2,95.6 M12.9,95.6C12.9,95.7,12.9,95.7,12.9,95.6c0,0,0-0.1,0-0.1C12.9,95.4,12.9,95.5,12.9,95.6 M21,95.6
		C21,95.8,21,95.8,21,95.6c0,0,0-0.1,0-0.1C21,95.5,21,95.5,21,95.6 M77.1,95.6C77.1,95.7,77.1,95.8,77.1,95.6
		C77.1,95.7,77.1,95.6,77.1,95.6C77.1,95.5,77.1,95.5,77.1,95.6 M3.4,95.6c0,0.1,0.2,0.5,0.3,0.5c0,0,0-0.1-0.1-0.3
		C3.4,95.6,3.4,95.6,3.4,95.6 M57.7,95.9C57.7,96,57.7,96,57.7,95.9c0,0,0-0.1,0-0.1C57.7,95.7,57.7,95.8,57.7,95.9 M12.9,96.1
		c0,0.2,0,0.3,0,0.2c0-0.1,0-0.3,0-0.3C12.9,95.9,12.9,95.9,12.9,96.1 M45,96.1c0,0.1,0.1,0.2,0.1,0.2c0,0.1,0,0,0,0
		C45.1,96.2,45,96.1,45,96.1C45,96,45,96,45,96.1 M20.8,96.2c0,0.1,0,0.1,0,0.2C20.8,96.4,20.9,96.3,20.8,96.2
		c0.1,0,0.1-0.1,0.1-0.1C20.9,96.1,20.9,96.2,20.8,96.2 M69.5,97.2l-0.9,0.9L69.5,97.2l0.9-0.9l0.2,0.1c0.1,0.1,0.2,0.2,0.3,0.2
		c0.1,0,0,0-0.1-0.2c-0.1-0.1-0.3-0.2-0.3-0.2C70.4,96.3,70,96.7,69.5,97.2 M55,96.5C55,96.6,55.1,96.6,55,96.5
		C55.1,96.5,55.1,96.5,55,96.5C55.1,96.4,55,96.4,55,96.5 M8.6,96.6l-0.2,0.2L8.6,96.6c0.2-0.2,0.2-0.2,0.2-0.2
		C8.8,96.4,8.7,96.5,8.6,96.6 M62.9,96.6c0,0.1-0.1,0.2-0.1,0.2c0,0,0.2-0.3,0.2-0.3C63,96.4,62.9,96.5,62.9,96.6 M57.8,96.5
		c0,0.1,0.2,0.5,0.4,0.7l0.2,0.2l-0.2-0.3c-0.1-0.2-0.3-0.4-0.3-0.5C57.8,96.5,57.8,96.5,57.8,96.5 M76.9,96.6
		c-0.1,0.1-0.1,0.2-0.1,0.2c0.1,0,0.2-0.3,0.2-0.3C77,96.5,77,96.5,76.9,96.6 M20.7,96.7l-0.1,0.2L20.7,96.7
		c0.1-0.1,0.1-0.2,0.1-0.2C20.7,96.5,20.7,96.6,20.7,96.7 M45.2,96.6c0,0.1,0.1,0.2,0.1,0.2c0,0.1,0,0,0,0
		C45.3,96.7,45.2,96.6,45.2,96.6C45.2,96.5,45.2,96.6,45.2,96.6 M49.8,96.7c0,0.1,0,0.2,0,0.2C49.8,96.9,49.8,96.8,49.8,96.7
		c0.1,0,0.1-0.1,0.1-0.1S49.8,96.6,49.8,96.7 M0.9,96.6c0,0,0,0.1,0.1,0.2C1,96.9,1,96.9,1,96.9C1,96.8,1,96.8,0.9,96.6
		C0.9,96.6,0.9,96.6,0.9,96.6 M4.2,96.8c0.2,0.2,0.5,0.4,0.5,0.4c0,0-0.1-0.1-0.2-0.2C4.4,97,4.3,96.9,4.2,96.8
		C4.1,96.7,4.1,96.7,4.2,96.8 M79.7,96.7c0,0.1,0,0.1,0,0.2c0,0.1,0,0.1,0,0C79.8,96.8,79.8,96.7,79.7,96.7
		C79.7,96.6,79.7,96.6,79.7,96.7 M9.6,97c0.2,0.2,0.4,0.4,0.4,0.4C10,97.4,9.8,97.2,9.6,97c-0.2-0.2-0.3-0.4-0.4-0.4
		C9.2,96.6,9.4,96.8,9.6,97 M8.2,96.9c-0.1,0.1-0.3,0.2-0.4,0.3c-0.1,0.1-0.2,0.1-0.2,0.1c0.1,0,0.6-0.3,0.7-0.5
		C8.4,96.8,8.4,96.8,8.2,96.9 M62.5,97c-0.1,0.1-0.3,0.3-0.4,0.3c-0.1,0.1-0.1,0.1,0,0c0.1-0.1,0.7-0.6,0.6-0.5
		C62.8,96.8,62.7,96.9,62.5,97 M71.1,96.9c0,0.1,0.6,0.3,0.6,0.3c0,0-0.1-0.1-0.3-0.2C71.3,97,71.1,96.9,71.1,96.9 M76.6,97.1
		c-0.3,0.2-0.3,0.2-0.2,0.2c0.1-0.1,0.5-0.3,0.4-0.3C76.8,96.9,76.7,97,76.6,97.1 M16,97.2c0.1,0.1,0.2,0.2,0.2,0.2
		C16.2,97.3,16.1,97.2,16,97.2c0-0.1-0.1-0.2-0.1-0.2C15.8,97,15.9,97.1,16,97.2 M55.1,97.1c0,0.1,0.1,0.5,0.1,0.4
		c0,0,0-0.1-0.1-0.3C55.2,97.1,55.1,97,55.1,97.1 M13,97.2c0,0,0,0.1,0,0.2c0,0.1,0,0.1,0,0C13.1,97.3,13.1,97.3,13,97.2
		C13,97.1,13,97.1,13,97.2 M20.1,97.3C20,97.3,20,97.4,20.1,97.3c0,0,0.2-0.1,0.2-0.1C20.3,97.1,20.2,97.2,20.1,97.3 M79.5,97.3
		C79.5,97.5,79.5,97.5,79.5,97.3c0.1,0,0.1-0.1,0.1-0.1C79.6,97.2,79.6,97.2,79.5,97.3 M1.3,97.4c0.1,0.1,0.2,0.3,0.2,0.3
		c0.1,0.1,0,0-0.1-0.2C1.2,97.2,1.1,97.1,1.3,97.4 M5.1,97.4c0.1,0,0.2,0.1,0.2,0.1c0,0,0,0-0.1-0.1C5,97.3,4.9,97.3,5.1,97.4
		 M58.4,97.4c0,0,0.3,0.2,0.3,0.2c0,0-0.1-0.1-0.2-0.1C58.5,97.4,58.4,97.4,58.4,97.4 M10,97.4c0,0,0.1,0.1,0.2,0.2l0.2,0.1
		l-0.1-0.2C10.1,97.4,10,97.4,10,97.4 M5.4,97.5c0.1,0,0.4,0.1,0.3,0C5.7,97.5,5.6,97.5,5.4,97.5C5.4,97.5,5.4,97.5,5.4,97.5
		 M16.7,97.6c0.1,0,0.2,0.1,0.2,0.1c0,0,0,0-0.1-0.1C16.6,97.5,16.5,97.5,16.7,97.6 M6.1,97.6c0.1,0,0.4,0,0.5,0c0.1,0,0,0-0.3,0
		C6,97.6,5.9,97.6,6.1,97.6 M19.3,97.6C19.3,97.6,19.3,97.7,19.3,97.6c0,0,0.1,0,0.1,0c0.1,0,0.1,0,0,0
		C19.5,97.6,19.4,97.6,19.3,97.6 M73.5,97.7c0.1,0,0.3,0,0.4,0c0.1,0,0,0-0.2,0C73.5,97.7,73.4,97.7,73.5,97.7 M74.6,97.7
		c0.1,0,0.2,0,0.3,0c0.1,0,0,0-0.2,0C74.6,97.7,74.5,97.7,74.6,97.7 M13.2,97.8c0,0.2,0.3,0.7,0.4,0.7c0,0,0,0,0,0
		c0,0-0.2-0.2-0.3-0.4C13.3,97.8,13.2,97.7,13.2,97.8 M17.3,97.7c0.1,0,0.2,0,0.2,0c0.1,0,0,0-0.1,0C17.3,97.7,17.3,97.7,17.3,97.7
		 M18.5,97.8c0.1,0,0.2,0,0.3,0c0.1,0,0,0-0.2,0C18.5,97.7,18.4,97.7,18.5,97.8 M59.5,97.7c0.1,0,0.2,0,0.2,0c0.1,0,0,0-0.1,0
		C59.5,97.7,59.4,97.7,59.5,97.7 M60.7,97.8c0.1,0,0.2,0,0.3,0c0.1,0,0,0-0.2,0C60.7,97.7,60.6,97.7,60.7,97.8 M74.2,97.7
		c0.1,0,0.1,0,0.2,0C74.4,97.7,74.4,97.7,74.2,97.7C74.1,97.7,74.1,97.7,74.2,97.7 M10.5,98c0.1,0.1,0.2,0.2,0.2,0.2
		C10.8,98.2,10.7,98.1,10.5,98l-0.2-0.2L10.5,98 M17.8,97.8c0.1,0,0.2,0,0.3,0c0.1,0,0,0-0.2,0C17.8,97.8,17.8,97.8,17.8,97.8
		 M55.4,97.8c0,0.1,0.2,0.4,0.2,0.4c0,0,0-0.1-0.1-0.2C55.4,97.8,55.4,97.7,55.4,97.8 M60,97.8c0.1,0,0.3,0,0.4,0c0.1,0,0,0-0.2,0
		C60,97.8,59.9,97.8,60,97.8 M79.2,98c-0.1,0.1-0.3,0.3-0.4,0.5c-0.2,0.2-0.2,0.2,0.1-0.1C79,98.3,79.2,98,79.2,98
		C79.4,97.7,79.3,97.8,79.2,98 M45.7,98.1c0,0.1,0.1,0.2,0.1,0.2c0,0.1,0,0,0,0C45.8,98.2,45.8,98.1,45.7,98.1
		C45.7,98,45.7,98,45.7,98.1 M49.3,98.2c0,0.1,0,0.2,0,0.2S49.3,98.3,49.3,98.2c0.1,0,0.1-0.1,0.1-0.1S49.3,98.1,49.3,98.2
		 M2.2,98.5c0.2,0.2,0.4,0.4,0.5,0.5c0.2,0.1,0.2,0.1,0,0C2.6,98.8,2.3,98.6,2.2,98.5l-0.3-0.3L2.2,98.5 M68.8,98.3
		c0.1,0.1,0.5,0.4,0.5,0.4c0,0-0.1-0.1-0.3-0.3C68.8,98.3,68.7,98.2,68.8,98.3 M10.3,98.6l-0.2,0.3L10.3,98.6
		c0.3-0.2,0.3-0.3,0.3-0.3C10.5,98.3,10.4,98.4,10.3,98.6 M49.1,98.5c0,0.1,0,0.2,0,0.2C49.1,98.7,49.1,98.7,49.1,98.5
		c0.1,0,0.1-0.1,0.1-0.1C49.2,98.4,49.1,98.5,49.1,98.5 M45.9,98.6c0,0.1,0.1,0.2,0.1,0.2c0,0.1,0,0,0,0C46,98.7,46,98.6,45.9,98.6
		C45.9,98.5,45.9,98.6,45.9,98.6 M56.2,98.9c0.2,0.2,0.4,0.4,0.5,0.5c0.2,0.1,0.2,0.1-0.1-0.1C56.6,99.2,56.3,99,56.2,98.9
		C55.9,98.7,55.9,98.7,56.2,98.9 M13.9,98.8c0.1,0.1,0.3,0.3,0.5,0.4c0.1,0.1,0.2,0.1,0.1,0C14.4,99.2,14.1,99,13.9,98.8l-0.2-0.3
		L13.9,98.8 M78.2,99C78.2,99,78.1,99.1,78.2,99c0,0,0.2-0.1,0.2-0.1C78.4,98.8,78.3,98.9,78.2,99 M62.8,99.1
		C62.6,99.3,62.6,99.3,62.8,99.1c0.1-0.1,0.3-0.2,0.3-0.2C63,98.9,62.9,99,62.8,99.1 M48.9,99.1c0,0.1,0,0.2,0,0.2
		C48.9,99.3,48.9,99.2,48.9,99.1C49,99,49,99,49,98.9C49,98.9,48.9,99,48.9,99.1 M9.5,99.1c-0.3,0.2-0.4,0.3-0.1,0.1
		C9.6,99.2,9.8,99,9.8,99C9.8,99,9.7,99.1,9.5,99.1 M3,99.2c0,0,0.1,0.1,0.1,0.1c0.1,0,0.1,0.1,0.1,0.1s-0.1-0.1-0.1-0.1
		C3.1,99.2,3,99.2,3,99.2 M77.7,99.3c-0.1,0.1-0.2,0.1-0.2,0.1C77.5,99.4,77.6,99.4,77.7,99.3c0.1,0,0.2-0.1,0.2-0.1
		C77.9,99.2,77.9,99.2,77.7,99.3 M14.6,99.4c0,0,0.5,0.3,0.5,0.3c0,0-0.1-0.1-0.2-0.1C14.7,99.4,14.6,99.4,14.6,99.4 M8.8,99.6
		c-0.2,0.1-0.2,0.1-0.2,0.1c0.1,0,0.5-0.2,0.5-0.2C9.1,99.4,9.1,99.4,8.8,99.6 M46.3,99.6c0,0.1,0.1,0.2,0.1,0.2c0,0.1,0,0,0,0
		C46.3,99.6,46.3,99.6,46.3,99.6C46.2,99.5,46.2,99.5,46.3,99.6 M3.8,99.6c0.1,0,0.1,0.1,0.2,0.1C4,99.7,3.9,99.6,3.8,99.6
		C3.8,99.5,3.7,99.5,3.8,99.6C3.7,99.5,3.7,99.5,3.8,99.6 M70.9,99.6c0.1,0,0.2,0.1,0.3,0.1c0.1,0,0.1,0,0,0
		C70.9,99.5,70.7,99.5,70.9,99.6 M61.8,99.7C61.8,99.7,61.7,99.8,61.8,99.7C61.8,99.8,61.9,99.7,61.8,99.7c0.2,0,0.2-0.1,0.2-0.1
		C62,99.6,61.9,99.6,61.8,99.7 M71.8,99.9c0.1,0,0.2,0,0.2,0c0.1,0,0.1,0,0,0C71.8,99.8,71.6,99.8,71.8,99.9 M19,99.9
		C18.9,99.9,18.9,99.9,19,99.9c0,0,0.1,0,0.2,0C19.3,99.8,19.1,99.8,19,99.9 M46.4,99.9c0,0,0.5,0,1.1,0c0.6,0,1.1,0,1.1,0
		c0,0-0.5,0-1.1,0C46.9,99.9,46.4,99.9,46.4,99.9 M61.2,99.9C61.1,99.9,61.1,99.9,61.2,99.9c0,0,0.1,0,0.2,0
		C61.5,99.8,61.3,99.8,61.2,99.9 M72.5,100c0,0,0.1,0,0.2,0C72.7,100,72.7,100,72.5,100C72.5,100,72.4,100,72.5,100 M5.4,100
		c0,0,0.1,0,0.2,0C5.6,100,5.6,100,5.4,100C5.4,100,5.4,100,5.4,100 M16.6,100c0.1,0,0.1,0,0.2,0C16.8,100,16.8,100,16.6,100
		C16.6,100,16.5,100,16.6,100 M18.3,100c0.1,0,0.1,0,0.2,0C18.5,100,18.5,100,18.3,100C18.3,100,18.2,100,18.3,100 M58.8,100
		c0.1,0,0.1,0,0.2,0C59,100,59,100,58.8,100C58.7,100,58.7,100,58.8,100 M60.4,100c0,0,0.1,0,0.2,0C60.7,100,60.6,100,60.4,100
		C60.4,100,60.4,100,60.4,100 M73,100c0.1,0,0.2,0,0.2,0c0.1,0,0,0-0.1,0C73,100,72.9,100,73,100 M75,100c0.1,0,0.2,0,0.2,0
		c0.1,0,0,0-0.1,0C75,100,75,100,75,100 M0.1,0.1 M0.1,0.1"/>
</g>
</svg>
