<?xml version="1.0" encoding="utf-8"?>
<!-- Generator: Adobe Illustrator 25.1.0, SVG Export Plug-In . SVG Version: 6.00 Build 0)  -->
<svg version="1.1" id="Layer_1" xmlns="http://www.w3.org/2000/svg" xmlns:xlink="http://www.w3.org/1999/xlink" x="0px" y="0px"
	 viewBox="0 0 200 65" style="enable-background:new 0 0 200 65;" xml:space="preserve">
<style type="text/css">
	.st0{fill:#A31F34;}
</style>
<g transform="translate(0.000000,208.000000) scale(0.100000,-0.100000)">
	<path d="M37.6,1758.3C15.9,1593-2.6,1454.5-3.5,1450l-1.5-8.3h65.8c50,0,66.4,0.9,67.3,3.6c0.6,2.1,12.2,87,25.6,188.6
		c13.1,101.6,25,189.8,26.2,196c1.8,11,4.2,6.9,70-118.6c37.2-71.2,68.8-129.6,70-129.6c0.9,0,48,58.4,104.3,129.6
		c56.3,71.5,103.1,129.3,103.7,128.7c0.6-0.6-10.4-87.3-24.4-192.1c-14-105.2-25.3-194.5-25.3-198.7v-7.4l66.1,0.6l66.4,0.9
		l40.8,306.8c22.3,168.9,40.8,307.1,40.8,307.7c0.3,0.3-32.5,0.6-72.4,0.6h-73l-95.9-127.2c-52.7-70.3-96.8-128.7-98.3-130.2
		c-1.5-1.5-30.7,54.5-66.4,127.2l-64,130.2h-72.4H77.2L37.6,1758.3z"/>
	<path d="M793.9,2056.2c0-1.5-18.2-138.5-40.2-304.7c-22-166.2-40.2-304.1-40.2-305.9c0-3,15.5-3.9,67-3.9h66.7l1.8,9.8
		c0.9,5.1,7.4,55.1,14.9,110.8c7.1,55.7,24.7,187.4,38.7,292.8c14,105.2,25.3,193.9,25.3,197.2c0,5.7-2.1,6-67,6
		C824,2058.3,793.9,2057.4,793.9,2056.2z"/>
	<path d="M995,2051.8c-0.6-3.9-4.2-28.9-7.4-56s-6.9-52.1-7.7-55.7l-1.2-6.9h94.1h94.1l-1.8-9.5c-0.9-5.4-14.9-111.7-31.3-236.2
		c-16.7-124.5-30.7-230.9-31.6-236.2l-1.8-9.5l67.9,0.6l67.9,0.9l27.4,205.5c14.9,113.2,29.5,223.4,32.2,245.2l5.4,39.3h93.2h93.5
		l1.2,6.9c0.9,3.6,4.5,28.6,7.7,55.7s6.9,52.1,7.7,56l1.2,6.6h-254.7H996.5L995,2051.8z"/>
	<path d="M1793.6,1687.1c0,0-28.3,58.4-64.6,125.1l-66.4,120.9h-86.1c-79.2,0-86.1-0.3-84.3-5.1c1.2-2.7,31-57.5,66.1-122.1
		c35.4-64.3,62.9-120.9,62.9-120.9"/>
	<path class="st0" d="M1621.2,1685.1c0,0-45.6-57.2-98.9-122.7l-97.4-119.2l82.8-0.9c45.9-0.3,84.6,0,86.4,0.6
		c3.9,1.5,199.6,244.3,199.6,244.3"/>
	<path class="st0" d="M1782.9,1883.2c-22-27.4-40.2-51.2-40.2-53c0-5.4,65.2-123.3,67.6-122.4c1.8,0.6,138.2,167.1,175.8,214.5
		l8.9,11h-86.1l-85.8-0.3L1782.9,1883.2z"/>
	<path d="M1753.4,1605.5l-50.9-62.6l27.4-50.6l27.7-50.6h87.3h87.3l-12.2,21.7c-6.6,11.6-34.3,62.6-61.7,112.9
		c-27.7,50.3-50.9,91.7-52.1,91.7S1781.4,1640.1,1753.4,1605.5z"/>
</g>
</svg>
