<svg
   xmlns:dc="http://purl.org/dc/elements/1.1/"
   xmlns:cc="http://creativecommons.org/ns#"
   xmlns:rdf="http://www.w3.org/1999/02/22-rdf-syntax-ns#"
   xmlns:svg="http://www.w3.org/2000/svg"
   xmlns="http://www.w3.org/2000/svg"
   xmlns:sodipodi="http://sodipodi.sourceforge.net/DTD/sodipodi-0.dtd"
   xmlns:inkscape="http://www.inkscape.org/namespaces/inkscape"
   width="200"
   height="100"
   viewBox="0 0 1016.9173 262.33916">
  <g
     inkscape:label="Livello 1"
     inkscape:groupmode="layer"
     id="layer1"
     transform="translate(1108.4587,-609.76405)">
    <path
       inkscape:connector-curvature="0"
       id="path3349"
       d="m -1108.3106,782.55322 0.148,-89.54999 0.1539,89.2402 0.154,89.2402 16.048,0.17002 16.048,0.17002 -16.35,0.13977 -16.35,0.13978 0.1481,-89.55 z m 1.0544,-0.9 c 0,-75.80398 0.1357,-90.06353 0.8872,-94.64999 5.7957,-35.37056 32.6575,-63.4645 68.6326,-71.78078 7.4638,-1.72538 24.114,-2.20243 32.1831,-0.92208 18.78907,2.9813 34.99109,11.195 48.29823,24.48506 23.51644,23.48625 31.57527,57.76247 21.01699,89.39056 -4.23144,12.67558 -10.41512,22.84024 -19.7987,32.54488 -7.27544,7.52437 -14.03012,12.59304 -22.78776,17.09983 -8.63339,4.44284 -16.23297,6.9997 -25.53066,8.58974 -9.9619,1.70363 -24.5423,1.29925 -34.1191,-0.94629 -11.3887,-2.67036 -23.267,-8.19163 -32.5317,-15.12132 -6.2579,-4.68073 -5.6527,-9.92338 -5.6527,48.96039 l 0,51.6 -15.3,0 -15.3,0 0,-89.25 z m 93.2975,-24.17239 c 7.2471,-0.82206 11.5099,-2.02983 18.27103,-5.17667 15.21657,-7.08225 26.11959,-20.21015 30.43035,-36.64004 2.09712,-7.99283 2.21713,-18.95493 0.29328,-26.78709 -4.90096,-19.95221 -19.99917,-35.54054 -39.99466,-41.29292 -4.1756,-1.20125 -6.0878,-1.37607 -14.6999,-1.34388 -8.9846,0.0336 -10.3873,0.18644 -15.1692,1.65291 -10.5224,3.22699 -18.7905,8.39872 -26.0703,16.30714 -4.6684,5.0715 -7.1892,9.0131 -10.1626,15.89058 -6.2549,14.4675 -5.7291,32.19138 1.3761,46.38536 9.4118,18.80163 27.1468,30.18909 49.1259,31.54323 0.6601,0.0407 3.63,-0.20172 6.6,-0.53862 z m 263.45374,32.40319 c -35.45629,-4.04192 -64.15483,-26.79574 -75.88731,-60.16775 -3.51684,-10.00331 -4.48829,-16.22429 -4.51501,-28.91304 -0.0182,-8.66159 0.23534,-12.69192 1.05568,-16.77823 5.66955,-28.24139 23.01528,-51.24688 48.09295,-63.78524 9.86727,-4.93345 19.78536,-7.90516 30.3,-9.07863 3.94789,-0.4406 4.16873,-0.52468 1.8,-0.68533 -4.72927,-0.32074 7.94972,-0.89155 13.61808,-0.6131 4.33138,0.21278 4.85002,0.33243 2.88192,0.66486 l -2.4,0.40538 2.51954,0.0851 c 1.38575,0.0468 5.31739,0.62507 8.73698,1.28498 36.59286,7.06169 64.94613,36.06462 71.23845,72.87074 1.1374,6.6531 1.20503,9.72214 1.20503,54.68904 l 0,47.64037 -14.38437,0 -14.38438,0 -0.16562,-9.14243 c -0.14427,-7.96355 -0.29417,-9.16711 -1.16251,-9.33376 -0.54828,-0.10524 -3.38328,1.5936 -6.3,3.77519 -6.4331,4.8117 -20.14208,11.70984 -27.36166,13.76797 -10.91238,3.11085 -24.96188,4.44535 -34.88777,3.31383 z m 23.81053,-32.02173 c 28.21228,-7.2027 47.5338,-34.92165 44.2593,-63.49506 -1.55329,-13.55403 -7.18217,-25.48372 -16.52352,-35.01941 -11.28062,-11.5153 -24.25979,-17.3427 -40.2,-18.04904 -27.33442,-1.21124 -51.57865,16.45346 -59.43397,43.30445 -2.25079,7.69363 -2.67451,19.26848 -0.99937,27.3 3.79478,18.1942 15.21915,33.28382 31.3468,41.40367 5.15154,2.59368 13.01306,5.16381 18.28654,5.97835 5.95603,0.91997 16.64897,0.26594 23.26422,-1.42296 z m 535.33578,31.98059 c -22.9974,-2.39907 -44.49564,-13.60212 -59.01498,-30.75359 -10.27452,-12.13712 -16.38954,-24.58093 -19.99878,-40.69648 -1.20534,-5.38198 -1.38168,-7.75531 -1.35108,-18.18958 0.0294,-9.97174 0.2526,-12.98196 1.32162,-17.80966 7.09068,-32.02159 29.23164,-56.96706 59.5899,-67.13801 6.14904,-2.06014 15.89508,-4.10452 20.22462,-4.24245 l 2.8287,-0.0901 -2.7,-0.39644 c -2.3277,-0.34177 -1.9554,-0.43276 2.7,-0.65988 6.7947,-0.33149 17.35026,0.20359 13.8,0.69956 l -2.4,0.33527 2.5287,0.10086 c 1.3908,0.0555 5.2923,0.63657 8.66994,1.29133 35.44674,6.87134 62.34206,33.36893 70.84066,69.79294 1.2513,5.36333 1.2931,6.90425 1.5027,55.46659 l 0.2155,49.94999 -14.4288,0 -14.4287,0 0,-8.35092 c 0,-8.81257 -0.21822,-10.24908 -1.5567,-10.24908 -0.45564,0 -3.19422,1.75055 -6.08586,3.8901 -17.69562,13.09336 -40.44924,19.32456 -62.25744,17.04956 z m 22.8,-31.68801 c 37.5867,-9.22479 56.54076,-50.62663 38.85432,-84.87073 -14.90148,-28.85205 -49.7046,-40.2378 -79.0581,-25.86365 -14.70288,7.19987 -26.64126,21.85648 -31.02,38.08274 -1.19076,4.41267 -1.37142,6.47465 -1.34058,15.3 0.0324,9.33077 0.1752,10.66017 1.67292,15.6 4.91898,16.2238 15.49008,29.19747 29.7861,36.55566 5.59986,2.88229 13.30866,5.4619 18.90534,6.32636 5.27706,0.8151 16.62804,0.23713 22.2,-1.13038 z m 76.7857,-16.55165 c 10e-5,-26.06999 0.074,-36.64741 0.1641,-23.50537 0.09,13.14205 0.09,34.47205 0,47.4 -0.09,12.92796 -0.1641,2.17537 -0.1641,-23.89463 z m -805.4857,-41.09999 0,-87 14.4,0 14.4,0 0,87 0,86.99999 -14.4,0 -14.4,0 0,-86.99999 z m 280.2,72.03503 0,-14.96496 48.3,-56.82402 c 26.565,-31.25321 48.3,-57.32398 48.3,-57.93504 0,-1.07215 -1.68953,-1.11101 -48.3,-1.11101 l -48.3,0 0,-14.7 0,-14.7 70.8,0 70.8,0 0,14.91398 0,14.91399 -46.95,56.83511 c -30.28825,36.66531 -46.95,57.29678 -46.95,58.13601 l 0,1.3009 46.95,0.15366 46.95,0.15366 0,14.39634 0,14.39634 -70.8,0 -70.8,0 0,-14.96496 z m 177,0.0798 0,-14.88512 48.3,-56.80885 c 29.1387,-34.27195 48.3,-57.2873 48.3,-58.01488 0,-1.19804 -0.31962,-1.20602 -48.3,-1.20602 l -48.3,0 0,-14.7 0,-14.7 70.8,0 70.8,0 0,15.01202 0,15.01202 -46.65,56.43582 c -25.6575,31.03971 -46.9029,56.97472 -47.21196,57.63338 -0.4062,0.86573 -0.3231,1.34869 0.3,1.74297 0.49758,0.31486 20.4546,0.54929 47.21196,0.5546 l 46.35,0.009 0,14.4 0,14.4 -70.8,0 -70.8,0 0,-14.88512 z"
       style="fill:#4989b0" />
  </g>
</svg>
